<svg width="8" height="8" viewBox="0 0 8 8" fill="none" xmlns="http://www.w3.org/2000/svg">
<g clip-path="url(#clip0_201_19993)">
<path d="M6.29583 1.96165L6.82062 1.43685V2.8252H5.43227L6.00983 2.24765C5.86266 2.05606 5.60998 1.89778 5.25456 1.76728C4.89914 1.63677 4.49652 1.57569 4.04392 1.57569C3.59409 1.57569 3.18869 1.63677 2.83327 1.76728C2.47786 1.89778 2.22518 2.05606 2.07801 2.24765L2.65557 2.8252H1.26721V1.43685L1.79201 1.96165C2.00026 1.71452 2.3057 1.52293 2.7111 1.37576C3.11372 1.2286 3.55799 1.15918 4.04392 1.15918C4.52984 1.15918 4.97411 1.2286 5.37674 1.37576C5.78214 1.52293 6.08757 1.71452 6.29583 1.96165ZM6.19031 5.39921V5.44919L5.98761 6.90696C5.9654 7.01248 5.92097 7.09855 5.84878 7.16797C5.77381 7.23739 5.68495 7.26793 5.57944 7.26793H3.69128C3.58854 7.26793 3.48858 7.22906 3.40528 7.14298L2.02525 5.77684L2.24739 5.55471C2.30848 5.49362 2.37789 5.46307 2.46953 5.46307H2.53339L3.48858 5.67133V2.68637C3.48858 2.57808 3.52467 2.48089 3.60798 2.39759C3.69128 2.31429 3.78846 2.26986 3.90508 2.26986C4.01337 2.26986 4.11056 2.31429 4.19386 2.39759C4.27716 2.48089 4.32159 2.57808 4.32159 2.68637V4.35239H4.53817C4.56594 4.35239 4.61314 4.36628 4.68256 4.38294L5.94319 5.00769C6.10979 5.08544 6.19031 5.21595 6.19031 5.39921Z" fill="black"/>
</g>
<defs>
<clipPath id="clip0_201_19993">
<rect width="6.6641" height="6.6641" fill="white" transform="translate(0.711914 0.881836)"/>
</clipPath>
</defs>
</svg>
